<?xml version="1.0" encoding="UTF-8"?>
<svg xmlns="http://www.w3.org/2000/svg" width="1536" height="1536" viewBox="0 0 100 100" preserveAspectRatio="none">
  <defs>
    <linearGradient id="cosmicBase" x1="0" y1="0" x2="0" y2="1">
      <stop offset="0%" stop-color="#0a0812"/>
      <stop offset="50%" stop-color="#0f0d14"/>
      <stop offset="100%" stop-color="#0a0812"/>
    </linearGradient>
    <radialGradient id="nebulaTop" cx="50%" cy="-5%" rx="80%" ry="50%">
      <stop offset="0%" stop-color="rgba(88,62,110,0.35)"/>
      <stop offset="70%" stop-color="rgba(88,62,110,0)"/>
    </radialGradient>
    <radialGradient id="vignetteBottom" cx="50%" cy="100%" rx="100%" ry="60%">
      <stop offset="0%" stop-color="rgba(0,0,0,0.5)"/>
      <stop offset="50%" stop-color="rgba(0,0,0,0)"/>
    </radialGradient>
  </defs>
  <rect width="100" height="100" fill="url(#cosmicBase)"/>
  <g opacity="1">
    <circle key="0" cx="14" cy="8.5" r="0.2" fill="#ffffff" opacity="0.400"/>
    <circle key="1" cx="55" cy="37.5" r="0.1" fill="#ffffff" opacity="0.224"/>
    <circle key="2" cx="96" cy="66.5" r="0.1" fill="#ffffff" opacity="0.224"/>
    <circle key="3" cx="39" cy="95.5" r="0.14" fill="#ffffff" opacity="0.224"/>
    <circle key="4" cx="80" cy="27.5" r="0.2" fill="#ffffff" opacity="0.400"/>
    <circle key="5" cx="23" cy="56.5" r="0.1" fill="#ffffff" opacity="0.224"/>
    <circle key="6" cx="64" cy="85.5" r="0.14" fill="#ffffff" opacity="0.224"/>
    <circle key="7" cx="7" cy="17.5" r="0.1" fill="#ffffff" opacity="0.224"/>
    <circle key="8" cx="48" cy="46.5" r="0.2" fill="#ffffff" opacity="0.400"/>
    <circle key="9" cx="89" cy="75.5" r="0.14" fill="#ffffff" opacity="0.224"/>
    <circle key="10" cx="32" cy="7.5" r="0.1" fill="#ffffff" opacity="0.224"/>
    <circle key="11" cx="73" cy="36.5" r="0.1" fill="#ffffff" opacity="0.224"/>
    <circle key="12" cx="16" cy="65.5" r="0.2" fill="#ffffff" opacity="0.400"/>
    <circle key="13" cx="57" cy="94.5" r="0.1" fill="#ffffff" opacity="0.224"/>
    <circle key="14" cx="98" cy="26.5" r="0.1" fill="#ffffff" opacity="0.224"/>
    <circle key="15" cx="41" cy="55.5" r="0.14" fill="#ffffff" opacity="0.224"/>
    <circle key="16" cx="82" cy="84.5" r="0.2" fill="#ffffff" opacity="0.400"/>
    <circle key="17" cx="25" cy="16.5" r="0.1" fill="#ffffff" opacity="0.224"/>
    <circle key="18" cx="66" cy="45.5" r="0.14" fill="#ffffff" opacity="0.224"/>
    <circle key="19" cx="9" cy="74.5" r="0.1" fill="#ffffff" opacity="0.224"/>
    <circle key="20" cx="50" cy="6.5" r="0.2" fill="#ffffff" opacity="0.400"/>
    <circle key="21" cx="91" cy="35.5" r="0.14" fill="#ffffff" opacity="0.224"/>
    <circle key="22" cx="34" cy="64.5" r="0.1" fill="#ffffff" opacity="0.224"/>
    <circle key="23" cx="75" cy="93.5" r="0.1" fill="#ffffff" opacity="0.224"/>
    <circle key="24" cx="18" cy="25.5" r="0.2" fill="#ffffff" opacity="0.400"/>
    <circle key="25" cx="59" cy="54.5" r="0.1" fill="#ffffff" opacity="0.224"/>
    <circle key="26" cx="2" cy="83.5" r="0.1" fill="#ffffff" opacity="0.224"/>
    <circle key="27" cx="43" cy="15.5" r="0.14" fill="#ffffff" opacity="0.224"/>
    <circle key="28" cx="84" cy="44.5" r="0.2" fill="#ffffff" opacity="0.400"/>
    <circle key="29" cx="27" cy="73.5" r="0.1" fill="#ffffff" opacity="0.224"/>
    <circle key="30" cx="68" cy="5.5" r="0.14" fill="#ffffff" opacity="0.224"/>
    <circle key="31" cx="11" cy="34.5" r="0.1" fill="#ffffff" opacity="0.224"/>
    <circle key="32" cx="52" cy="63.5" r="0.2" fill="#ffffff" opacity="0.400"/>
    <circle key="33" cx="93" cy="92.5" r="0.14" fill="#ffffff" opacity="0.224"/>
    <circle key="34" cx="36" cy="24.5" r="0.1" fill="#ffffff" opacity="0.224"/>
    <circle key="35" cx="77" cy="53.5" r="0.1" fill="#ffffff" opacity="0.224"/>
    <circle key="36" cx="20" cy="82.5" r="0.2" fill="#ffffff" opacity="0.400"/>
    <circle key="37" cx="61" cy="14.5" r="0.1" fill="#ffffff" opacity="0.224"/>
    <circle key="38" cx="4" cy="43.5" r="0.1" fill="#ffffff" opacity="0.224"/>
    <circle key="39" cx="45" cy="72.5" r="0.14" fill="#ffffff" opacity="0.224"/>
    <circle key="40" cx="86" cy="4.5" r="0.2" fill="#ffffff" opacity="0.400"/>
    <circle key="41" cx="29" cy="33.5" r="0.1" fill="#ffffff" opacity="0.224"/>
    <circle key="42" cx="70" cy="62.5" r="0.14" fill="#ffffff" opacity="0.224"/>
    <circle key="43" cx="13" cy="91.5" r="0.1" fill="#ffffff" opacity="0.224"/>
    <circle key="44" cx="54" cy="23.5" r="0.2" fill="#ffffff" opacity="0.400"/>
    <circle key="45" cx="95" cy="52.5" r="0.14" fill="#ffffff" opacity="0.224"/>
    <circle key="46" cx="38" cy="81.5" r="0.1" fill="#ffffff" opacity="0.224"/>
    <circle key="47" cx="79" cy="13.5" r="0.1" fill="#ffffff" opacity="0.224"/>
    <circle key="48" cx="22" cy="42.5" r="0.2" fill="#ffffff" opacity="0.400"/>
    <circle key="49" cx="63" cy="71.5" r="0.1" fill="#ffffff" opacity="0.224"/>
    <circle key="50" cx="6" cy="3.5" r="0.1" fill="#ffffff" opacity="0.224"/>
    <circle key="51" cx="47" cy="32.5" r="0.14" fill="#ffffff" opacity="0.224"/>
    <circle key="52" cx="88" cy="61.5" r="0.2" fill="#ffffff" opacity="0.400"/>
    <circle key="53" cx="31" cy="90.5" r="0.1" fill="#ffffff" opacity="0.224"/>
    <circle key="54" cx="72" cy="22.5" r="0.14" fill="#ffffff" opacity="0.224"/>
    <circle key="55" cx="15" cy="51.5" r="0.1" fill="#ffffff" opacity="0.224"/>
    <circle key="56" cx="56" cy="80.5" r="0.2" fill="#ffffff" opacity="0.400"/>
    <circle key="57" cx="97" cy="12.5" r="0.14" fill="#ffffff" opacity="0.224"/>
    <circle key="58" cx="40" cy="41.5" r="0.1" fill="#ffffff" opacity="0.224"/>
    <circle key="59" cx="81" cy="70.5" r="0.1" fill="#ffffff" opacity="0.224"/>
    <circle key="60" cx="24" cy="2.5" r="0.2" fill="#ffffff" opacity="0.400"/>
    <circle key="61" cx="65" cy="31.5" r="0.1" fill="#ffffff" opacity="0.224"/>
    <circle key="62" cx="8" cy="60.5" r="0.1" fill="#ffffff" opacity="0.224"/>
    <circle key="63" cx="49" cy="89.5" r="0.14" fill="#ffffff" opacity="0.224"/>
    <circle key="64" cx="90" cy="21.5" r="0.2" fill="#ffffff" opacity="0.400"/>
    <circle key="65" cx="33" cy="50.5" r="0.1" fill="#ffffff" opacity="0.224"/>
    <circle key="66" cx="74" cy="79.5" r="0.14" fill="#ffffff" opacity="0.224"/>
    <circle key="67" cx="17" cy="11.5" r="0.1" fill="#ffffff" opacity="0.224"/>
    <circle key="68" cx="58" cy="40.5" r="0.2" fill="#ffffff" opacity="0.400"/>
    <circle key="69" cx="1" cy="69.5" r="0.14" fill="#ffffff" opacity="0.224"/>
    <circle key="70" cx="42" cy="1.5" r="0.1" fill="#ffffff" opacity="0.224"/>
    <circle key="71" cx="83" cy="30.5" r="0.1" fill="#ffffff" opacity="0.224"/>
  </g>
  <rect width="100" height="100" fill="url(#nebulaTop)"/>
  <rect width="100" height="100" fill="url(#vignetteBottom)"/>
</svg>