<svg xmlns="http://www.w3.org/2000/svg" xmlns:xlink="http://www.w3.org/1999/xlink" width="48" zoomAndPan="magnify" viewBox="0 0 36 43.92" height="48" preserveAspectRatio="xMidYMid meet" version="1.0"><defs><clipPath id="c5ba6fb6ae"><path d="M 3.699219 5.054688 L 32.242188 5.054688 L 32.242188 30.878906 L 3.699219 30.878906 Z M 3.699219 5.054688 " clip-rule="nonzero"/></clipPath><clipPath id="9bebe9b725"><path d="M 31.824219 10.511719 C 30.925781 7.460938 28.023438 5.054688 24.59375 5.054688 C 21.714844 5.054688 19.214844 6.679688 17.949219 9.066406 C 16.683594 6.679688 14.183594 5.054688 11.304688 5.054688 C 7.71875 5.054688 4.578125 7.460938 3.964844 10.953125 C 2.402344 19.804688 12.300781 26.734375 17.972656 30.878906 C 23.214844 27.046875 34.394531 19.234375 31.824219 10.511719 Z M 31.824219 10.511719 " clip-rule="nonzero"/></clipPath><clipPath id="c01ae3c884"><path d="M 0.699219 0.0546875 L 29.242188 0.0546875 L 29.242188 25.878906 L 0.699219 25.878906 Z M 0.699219 0.0546875 " clip-rule="nonzero"/></clipPath><clipPath id="8c3792c338"><path d="M 28.824219 5.511719 C 27.925781 2.460938 25.023438 0.0546875 21.59375 0.0546875 C 18.714844 0.0546875 16.214844 1.679688 14.949219 4.066406 C 13.683594 1.679688 11.183594 0.0546875 8.304688 0.0546875 C 4.71875 0.0546875 1.578125 2.460938 0.964844 5.953125 C -0.597656 14.804688 9.300781 21.734375 14.972656 25.878906 C 20.214844 22.046875 31.394531 14.234375 28.824219 5.511719 Z M 28.824219 5.511719 " clip-rule="nonzero"/></clipPath><clipPath id="4aae8a0733"><rect x="0" width="30" y="0" height="26"/></clipPath><clipPath id="0e2c43bdb1"><path d="M 3.796875 5.054688 L 32.246094 5.054688 L 32.246094 30.511719 L 3.796875 30.511719 Z M 3.796875 5.054688 " clip-rule="nonzero"/></clipPath><clipPath id="22e30c7f08"><path d="M 31.820312 10.511719 C 30.921875 7.460938 28.023438 5.054688 24.59375 5.054688 C 21.714844 5.054688 19.214844 6.679688 17.949219 9.066406 C 16.683594 6.679688 14.183594 5.054688 11.304688 5.054688 C 7.71875 5.054688 4.582031 7.460938 3.964844 10.953125 C 2.402344 19.800781 12.300781 26.730469 17.972656 30.871094 C 23.210938 27.042969 34.386719 19.234375 31.820312 10.511719 Z M 31.820312 10.511719 " clip-rule="nonzero"/></clipPath></defs><g clip-path="url(#c5ba6fb6ae)"><g clip-path="url(#9bebe9b725)"><g transform="matrix(1, 0, 0, 1, 3, 5)"><g clip-path="url(#4aae8a0733)"><g clip-path="url(#c01ae3c884)"><g clip-path="url(#8c3792c338)"><path fill="#ffffff" d="M 0.796875 0.0546875 L 29.242188 0.0546875 L 29.242188 25.878906 L 0.796875 25.878906 Z M 0.796875 0.0546875 " fill-opacity="1" fill-rule="nonzero"/></g></g></g></g></g></g><g clip-path="url(#0e2c43bdb1)"><g clip-path="url(#22e30c7f08)"><path stroke-linecap="butt" transform="matrix(0.748636, 0, 0, 0.748636, 3.799922, 5.056518)" fill="none" stroke-linejoin="miter" d="M 37.428574 7.286851 C 36.228475 3.211733 32.356852 -0.0024447 27.775606 -0.0024447 C 23.930072 -0.0024447 20.590667 2.168169 18.900093 5.356257 C 17.209519 2.168169 13.870114 -0.0024447 10.024581 -0.0024447 C 5.234621 -0.0024447 1.044711 3.211733 0.220296 7.876464 C -1.866832 19.694828 11.355125 28.951241 18.9314 34.482131 C 25.928497 29.368667 40.856682 18.938244 37.428574 7.286851 Z M 37.428574 7.286851 " stroke="#000000" stroke-width="1.3" stroke-opacity="1" stroke-miterlimit="4"/></g></g></svg>