<svg xmlns="http://www.w3.org/2000/svg" xmlns:xlink="http://www.w3.org/1999/xlink" width="48" zoomAndPan="magnify" viewBox="0 0 36 43.92" height="48" preserveAspectRatio="xMidYMid meet" version="1.0"><defs><clipPath id="170adb140b"><path d="M 2.625 17.191406 L 21.886719 17.191406 L 21.886719 26.992188 L 2.625 26.992188 Z M 2.625 17.191406 " clip-rule="nonzero"/></clipPath><clipPath id="fe294f3efa"><path d="M 21.855469 26.992188 C 21.855469 21.65625 17.476562 17.191406 12.238281 17.191406 C 7.003906 17.191406 2.625 21.65625 2.625 26.992188 Z M 21.855469 26.992188 " clip-rule="nonzero"/></clipPath><clipPath id="2472b31f93"><path d="M 0.625 0.191406 L 19.886719 0.191406 L 19.886719 9.992188 L 0.625 9.992188 Z M 0.625 0.191406 " clip-rule="nonzero"/></clipPath><clipPath id="c99101d205"><path d="M 19.855469 9.992188 C 19.855469 4.65625 15.476562 0.191406 10.238281 0.191406 C 5.003906 0.191406 0.625 4.65625 0.625 9.992188 Z M 19.855469 9.992188 " clip-rule="nonzero"/></clipPath><clipPath id="b1b5c7c5a2"><rect x="0" width="20" y="0" height="10"/></clipPath><clipPath id="3e0e20b75b"><path d="M 2.636719 17.191406 L 21.488281 17.191406 L 21.488281 26.980469 L 2.636719 26.980469 Z M 2.636719 17.191406 " clip-rule="nonzero"/></clipPath><clipPath id="bc6821957c"><path d="M 21.835938 26.980469 C 21.835938 21.648438 17.464844 17.191406 12.238281 17.191406 C 7.007812 17.191406 2.636719 21.648438 2.636719 26.980469 Z M 21.835938 26.980469 " clip-rule="nonzero"/></clipPath><clipPath id="c5d3eb2b5f"><path d="M 5.089844 2.941406 L 19.386719 2.941406 L 19.386719 17.238281 L 5.089844 17.238281 Z M 5.089844 2.941406 " clip-rule="nonzero"/></clipPath><clipPath id="ab7f08722c"><path d="M 12.238281 2.941406 C 8.292969 2.941406 5.089844 6.140625 5.089844 10.089844 C 5.089844 14.039062 8.292969 17.238281 12.238281 17.238281 C 16.1875 17.238281 19.386719 14.039062 19.386719 10.089844 C 19.386719 6.140625 16.1875 2.941406 12.238281 2.941406 Z M 12.238281 2.941406 " clip-rule="nonzero"/></clipPath><clipPath id="7fc9b390d0"><path d="M 0.0898438 0.941406 L 14.386719 0.941406 L 14.386719 15.238281 L 0.0898438 15.238281 Z M 0.0898438 0.941406 " clip-rule="nonzero"/></clipPath><clipPath id="f67001420e"><path d="M 7.238281 0.941406 C 3.292969 0.941406 0.0898438 4.140625 0.0898438 8.089844 C 0.0898438 12.039062 3.292969 15.238281 7.238281 15.238281 C 11.1875 15.238281 14.386719 12.039062 14.386719 8.089844 C 14.386719 4.140625 11.1875 0.941406 7.238281 0.941406 Z M 7.238281 0.941406 " clip-rule="nonzero"/></clipPath><clipPath id="13101fedc7"><rect x="0" width="15" y="0" height="16"/></clipPath><clipPath id="964b2bc7a2"><path d="M 5.089844 2.941406 L 18.992188 2.941406 L 18.992188 16.839844 L 5.089844 16.839844 Z M 5.089844 2.941406 " clip-rule="nonzero"/></clipPath><clipPath id="e99c2f27bc"><path d="M 12.234375 2.941406 C 8.289062 2.941406 5.089844 6.140625 5.089844 10.085938 C 5.089844 14.03125 8.289062 17.226562 12.234375 17.226562 C 16.179688 17.226562 19.378906 14.03125 19.378906 10.085938 C 19.378906 6.140625 16.179688 2.941406 12.234375 2.941406 Z M 12.234375 2.941406 " clip-rule="nonzero"/></clipPath><clipPath id="b38a6868ad"><path d="M 12.238281 17.191406 L 31.5 17.191406 L 31.5 26.992188 L 12.238281 26.992188 Z M 12.238281 17.191406 " clip-rule="nonzero"/></clipPath><clipPath id="be6d016f60"><path d="M 31.46875 26.992188 C 31.46875 21.65625 27.089844 17.191406 21.855469 17.191406 C 16.617188 17.191406 12.238281 21.65625 12.238281 26.992188 Z M 31.46875 26.992188 " clip-rule="nonzero"/></clipPath><clipPath id="2c76152611"><path d="M 0.238281 0.191406 L 19.5 0.191406 L 19.5 9.992188 L 0.238281 9.992188 Z M 0.238281 0.191406 " clip-rule="nonzero"/></clipPath><clipPath id="40778b4481"><path d="M 19.46875 9.992188 C 19.46875 4.65625 15.089844 0.191406 9.855469 0.191406 C 4.617188 0.191406 0.238281 4.65625 0.238281 9.992188 Z M 19.46875 9.992188 " clip-rule="nonzero"/></clipPath><clipPath id="0b3e23e99c"><rect x="0" width="20" y="0" height="10"/></clipPath><clipPath id="a5213019d6"><path d="M 12.25 17.191406 L 31.101562 17.191406 L 31.101562 26.980469 L 12.25 26.980469 Z M 12.25 17.191406 " clip-rule="nonzero"/></clipPath><clipPath id="bd585e4782"><path d="M 31.449219 26.980469 C 31.449219 21.648438 27.078125 17.191406 21.851562 17.191406 C 16.621094 17.191406 12.25 21.648438 12.25 26.980469 Z M 31.449219 26.980469 " clip-rule="nonzero"/></clipPath><clipPath id="7ac84c44ac"><path d="M 14.707031 2.941406 L 29 2.941406 L 29 17.238281 L 14.707031 17.238281 Z M 14.707031 2.941406 " clip-rule="nonzero"/></clipPath><clipPath id="8a43ccd034"><path d="M 21.855469 2.941406 C 17.90625 2.941406 14.707031 6.140625 14.707031 10.089844 C 14.707031 14.039062 17.90625 17.238281 21.855469 17.238281 C 25.800781 17.238281 29 14.039062 29 10.089844 C 29 6.140625 25.800781 2.941406 21.855469 2.941406 Z M 21.855469 2.941406 " clip-rule="nonzero"/></clipPath><clipPath id="96d502f4d8"><path d="M 0.707031 0.941406 L 15 0.941406 L 15 15.238281 L 0.707031 15.238281 Z M 0.707031 0.941406 " clip-rule="nonzero"/></clipPath><clipPath id="9b49de1b5d"><path d="M 7.855469 0.941406 C 3.90625 0.941406 0.707031 4.140625 0.707031 8.089844 C 0.707031 12.039062 3.90625 15.238281 7.855469 15.238281 C 11.800781 15.238281 15 12.039062 15 8.089844 C 15 4.140625 11.800781 0.941406 7.855469 0.941406 Z M 7.855469 0.941406 " clip-rule="nonzero"/></clipPath><clipPath id="2034f0dde0"><rect x="0" width="15" y="0" height="16"/></clipPath><clipPath id="50b9321e45"><path d="M 14.707031 2.941406 L 28.605469 2.941406 L 28.605469 16.839844 L 14.707031 16.839844 Z M 14.707031 2.941406 " clip-rule="nonzero"/></clipPath><clipPath id="d9eaaab909"><path d="M 21.847656 2.941406 C 17.902344 2.941406 14.707031 6.140625 14.707031 10.085938 C 14.707031 14.03125 17.902344 17.226562 21.847656 17.226562 C 25.792969 17.226562 28.992188 14.03125 28.992188 10.085938 C 28.992188 6.140625 25.792969 2.941406 21.847656 2.941406 Z M 21.847656 2.941406 " clip-rule="nonzero"/></clipPath><clipPath id="d9773ec881"><rect x="0" width="34" y="0" height="30"/></clipPath></defs><g transform="matrix(1, 0, 0, 1, 1, 3)"><g clip-path="url(#d9773ec881)"><g clip-path="url(#170adb140b)"><g clip-path="url(#fe294f3efa)"><g transform="matrix(1, 0, 0, 1, 2, 17)"><g clip-path="url(#b1b5c7c5a2)"><g clip-path="url(#2472b31f93)"><g clip-path="url(#c99101d205)"><path fill="#ffffff" d="M 0.625 0.191406 L 19.847656 0.191406 L 19.847656 9.992188 L 0.625 9.992188 Z M 0.625 0.191406 " fill-opacity="1" fill-rule="nonzero"/></g></g></g></g></g></g><g clip-path="url(#3e0e20b75b)"><g clip-path="url(#bc6821957c)"><path stroke-linecap="butt" transform="matrix(0.992822, 0, 0, 0.992822, 2.636026, 17.191225)" fill="none" stroke-linejoin="miter" d="M 19.338732 9.860023 C 19.338732 4.48944 14.936034 0.000182993 9.671682 0.000182993 C 4.403395 0.000182993 0.000697267 4.48944 0.000697267 9.860023 Z M 19.338732 9.860023 " stroke="#000000" stroke-width="0.980264" stroke-opacity="1" stroke-miterlimit="4"/></g></g><g clip-path="url(#c5d3eb2b5f)"><g clip-path="url(#ab7f08722c)"><g transform="matrix(1, 0, 0, 1, 5, 2)"><g clip-path="url(#13101fedc7)"><g clip-path="url(#7fc9b390d0)"><g clip-path="url(#f67001420e)"><path fill="#ffffff" d="M 0.0898438 0.941406 L 14.386719 0.941406 L 14.386719 15.238281 L 0.0898438 15.238281 Z M 0.0898438 0.941406 " fill-opacity="1" fill-rule="nonzero"/></g></g></g></g></g></g><g clip-path="url(#964b2bc7a2)"><g clip-path="url(#e99c2f27bc)"><path stroke-linecap="butt" transform="matrix(0.992822, 0, 0, 0.992822, 5.091553, 2.941132)" fill="none" stroke-linejoin="miter" d="M 7.194466 0.000275998 C 3.220628 0.000275998 -0.0017216 3.222626 -0.0017216 7.196464 C -0.0017216 11.170301 3.220628 14.388717 7.194466 14.388717 C 11.168304 14.388717 14.390653 11.170301 14.390653 7.196464 C 14.390653 3.222626 11.168304 0.000275998 7.194466 0.000275998 Z M 7.194466 0.000275998 " stroke="#000000" stroke-width="0.980264" stroke-opacity="1" stroke-miterlimit="4"/></g></g><g clip-path="url(#b38a6868ad)"><g clip-path="url(#be6d016f60)"><g transform="matrix(1, 0, 0, 1, 12, 17)"><g clip-path="url(#0b3e23e99c)"><g clip-path="url(#2c76152611)"><g clip-path="url(#40778b4481)"><path fill="#ffffff" d="M 0.238281 0.191406 L 19.460938 0.191406 L 19.460938 9.992188 L 0.238281 9.992188 Z M 0.238281 0.191406 " fill-opacity="1" fill-rule="nonzero"/></g></g></g></g></g></g><g clip-path="url(#a5213019d6)"><g clip-path="url(#bd585e4782)"><path stroke-linecap="butt" transform="matrix(0.992822, 0, 0, 0.992822, 12.249712, 17.191225)" fill="none" stroke-linejoin="miter" d="M 19.338325 9.860023 C 19.338325 4.48944 14.935626 0.000182993 9.671274 0.000182993 C 4.402988 0.000182993 0.000289612 4.48944 0.000289612 9.860023 Z M 19.338325 9.860023 " stroke="#000000" stroke-width="0.980264" stroke-opacity="1" stroke-miterlimit="4"/></g></g><g clip-path="url(#7ac84c44ac)"><g clip-path="url(#8a43ccd034)"><g transform="matrix(1, 0, 0, 1, 14, 2)"><g clip-path="url(#2034f0dde0)"><g clip-path="url(#96d502f4d8)"><g clip-path="url(#9b49de1b5d)"><path fill="#ffffff" d="M 0.707031 0.941406 L 15 0.941406 L 15 15.238281 L 0.707031 15.238281 Z M 0.707031 0.941406 " fill-opacity="1" fill-rule="nonzero"/></g></g></g></g></g></g><g clip-path="url(#50b9321e45)"><g clip-path="url(#d9eaaab909)"><path stroke-linecap="butt" transform="matrix(0.992822, 0, 0, 0.992822, 14.705243, 2.941132)" fill="none" stroke-linejoin="miter" d="M 7.194055 0.000275998 C 3.220217 0.000275998 0.00180167 3.222626 0.00180167 7.196464 C 0.00180167 11.170301 3.220217 14.388717 7.194055 14.388717 C 11.167893 14.388717 14.390242 11.170301 14.390242 7.196464 C 14.390242 3.222626 11.167893 0.000275998 7.194055 0.000275998 Z M 7.194055 0.000275998 " stroke="#000000" stroke-width="0.980264" stroke-opacity="1" stroke-miterlimit="4"/></g></g></g></g></svg>